<svg width="1037" height="53" viewBox="0 0 1037 53" fill="none" xmlns="http://www.w3.org/2000/svg">
<path d="M1010.49 22.3978C1006.39 26.3225 1005.67 30.291 1006.12 34.7598C1010.56 35.4252 1014.56 34.8763 1018.66 30.9565C1022.76 27.0366 1025.94 19.8768 1026.77 15C1021.67 15.6897 1014.59 18.4779 1010.49 22.3978Z" fill="#E382D3"/>
<path d="M1012.44 36.6701C1009.88 35.5422 1007.94 35.9617 1006 37.0144C1006.53 39.1593 1007.54 40.8769 1010.09 42.0008C1012.64 43.1247 1016.5 43.2197 1018.87 42.6855C1017.59 40.497 1014.99 37.7979 1012.44 36.6701Z" fill="#E382D3"/>
<path d="M26.2819 22.3978C30.3815 26.3225 31.1004 30.291 30.6535 34.7598C26.209 35.4252 22.2114 34.8763 18.1118 30.9565C14.0122 27.0366 10.8258 19.8768 10 15C15.0905 15.6897 22.1823 18.4779 26.2819 22.3978Z" fill="#E382D3"/>
<path d="M24.335 36.6696C26.8899 35.5425 28.8278 35.9617 30.7696 37.0137C30.2357 39.1573 29.2351 40.8737 26.6842 41.9969C24.1333 43.1201 20.2931 43.2189 17.9202 42.6929C19.1857 40.494 21.7841 37.7968 24.335 36.6696Z" fill="#E382D3"/>
<path d="M560 36.5664L996 36.5664" stroke="#E382D3" stroke-width="2" stroke-miterlimit="10"/>
<path d="M41 36.3071H473" stroke="#E382D3" stroke-width="2" stroke-miterlimit="10"/>
<path d="M538.061 13.7173C534.957 14.4615 531.95 15.5774 529.102 17.0416C529.455 18.5856 529.584 20.174 529.486 21.7563C529.334 24.3188 528.394 26.767 526.801 28.7525C525.185 30.6557 523.217 32.2149 521.01 33.3408C520.027 33.7958 518.604 34.5479 518.604 34.5479C519.752 35.1666 520.953 35.6764 522.192 36.071C525.403 36.703 534.868 36.3111 540.987 31.8808C547.105 27.4506 551.207 18.6911 552.036 12.0236C547.326 11.9773 542.629 12.5465 538.061 13.7173Z" fill="#E382D3"/>
<path d="M496.988 13.717C500.092 14.4612 503.098 15.577 505.946 17.0413C505.593 18.5852 505.464 20.1737 505.562 21.7559C505.715 24.3184 506.654 26.7666 508.247 28.7521C509.864 30.6553 511.832 32.2145 514.038 33.3404C515.022 33.7954 516.445 34.5475 516.445 34.5475C515.297 35.1662 514.096 35.676 512.856 36.0706C509.646 36.7026 500.18 36.3107 494.062 31.8805C487.943 27.4502 483.835 18.6971 483 12.0232C487.714 11.9759 492.415 12.5451 496.988 13.717Z" fill="#E382D3"/>
<path d="M527.543 15.8091C526.933 13.8072 526.102 11.8822 525.069 10.0706C523.052 6.4974 520.48 3.28288 517.453 0.552734C513.24 4.23726 508.977 10.2854 507.332 15.9544C506.885 17.4269 506.648 18.9571 506.627 20.4985C506.627 25.9083 509.46 29.4664 513.97 32.3483C515.098 33.0597 516.26 33.7115 517.453 34.3012C518.61 33.7261 519.693 33.1257 520.701 32.4937C522.23 31.568 523.636 30.4442 524.883 29.1504C525.988 28.0129 526.857 26.6604 527.441 25.1732C528.024 23.6859 528.31 22.0941 528.28 20.4921C528.258 18.9029 528.01 17.3253 527.543 15.8091Z" fill="#E382D3"/>
<path d="M521.097 44.8553C520.868 45.7273 520.555 46.5741 520.163 47.3833C519.429 48.9417 518.462 50.3744 517.298 51.6303C515.495 49.6948 514.186 47.3354 513.487 44.7605C513.318 44.0978 513.229 43.4166 513.221 42.7318C513.221 40.3176 514.285 38.7313 515.987 37.4483C516.408 37.133 516.846 36.8418 517.298 36.5762C517.724 36.822 518.137 37.0899 518.536 37.3788C519.124 37.8024 519.654 38.3039 520.113 38.8703C520.976 39.9607 521.431 41.3299 521.394 42.7318C521.382 43.4495 521.283 44.163 521.097 44.8553Z" fill="#E382D3"/>
<path d="M502.482 38.9271C505.909 36.81 508.81 37.1576 511.867 38.4847C511.601 41.8659 510.561 44.6593 507.134 46.7765C503.706 48.8937 498.163 49.6268 494.606 49.1655C495.936 45.5947 499.054 41.0443 502.482 38.9271Z" fill="#E382D3"/>
<path d="M532.561 38.8957C529.034 36.9492 526.151 37.4484 523.163 38.8957C523.596 42.2579 524.766 44.9944 528.292 46.941C531.818 48.8875 537.386 49.3299 540.919 48.6916C539.428 45.222 536.087 40.8359 532.561 38.8957Z" fill="#E382D3"/>
</svg>
